<?xml version="1.0" encoding="UTF-8"?>
<svg id="Layer_1" data-name="Layer 1" xmlns="http://www.w3.org/2000/svg" viewBox="0 0 154.51 95.87">
  <defs>
    <style>
      .cls-1 {
        fill: #01b597;
      }

      .cls-1, .cls-2, .cls-3, .cls-4 {
        stroke-width: 0px;
      }

      .cls-2 {
        fill: #010101;
      }

      .cls-3 {
        fill: #3d3d3c;
      }

      .cls-4 {
        fill: #39a9e0;
      }
    </style>
  </defs>
  <path class="cls-1" d="m137.09,0H17.43C7.82,0,0,7.82,0,17.43v49.59c0,9.61,7.82,17.43,17.43,17.43h108.4c-.17-1.09-.32-1.8-.32-1.81-.25-1.16-.57-2.33-.96-3.49H17.43c-6.68,0-12.12-5.44-12.12-12.12V17.43c0-6.69,5.44-12.12,12.12-12.12h119.66c6.68,0,12.12,5.44,12.12,12.12v49.59c0,6.68-5.44,12.12-12.12,12.12h-1.83c.31,1.74.51,3.51.59,5.3h1.24c9.61,0,17.43-7.82,17.43-17.43V17.43c0-9.61-7.82-17.43-17.43-17.43Z"/>
  <path class="cls-2" d="m111.75,71.37c.18.25.35.46.49.65-.17-.21-.34-.43-.5-.65,0,0,0,0,.01,0Z"/>
  <path class="cls-2" d="m123.71,71.49c.3-.04.59-.11.87-.2-.11.04-.23.07-.35.11-.17.05-.34.08-.51.11-.15.03-.3.05-.44.06-.22,0-.44-.02-.64-.04.37.03.72.02,1.07-.04Z"/>
  <path class="cls-2" d="m127,78.17c-.19.06-.3.09-.33.09.11-.04.22-.07.32-.12,0,.01,0,.02.01.03Z"/>
  <path class="cls-4" d="m124.58,71.29c-.11.04-.23.07-.35.11-.17.05-.34.08-.51.11,0,0,0-.02-.01-.02.3-.04.59-.11.87-.2Z"/>
  <path class="cls-2" d="m112.68,72.55c.05.06.1.11.15.17-.04-.04-.09-.1-.15-.17Z"/>
  <g>
    <path class="cls-1" d="m134.58,87.1c-.02.55-.05,1.1-.1,1.64l-6.99,1.65c0-.79-.02-1.59-.06-2.4,0-.02,0-.19,0-.48,0-.29-.03-.71-.07-1.25,0-.01,0-.02,0-.03-.22-2.12-.58-3.83-.6-3.9-.27-1.26-.66-2.69-1.2-4.22-.13-.38-.28-.77-.43-1.16,0,0,0,0,0-.01-.06-.14-.11-.28-.17-.43,0,0,0-.02-.01-.03-.44-1.05-.94-2.13-1.52-3.24-.53-.99-1.13-2-1.81-3.02-.02-.03-.04-.06-.06-.09-.04-.06-.07-.11-.11-.17l-.02-.02c-.1-.14-.19-.29-.29-.43,0,0-.02-.02-.02-.03-.12-.18-.25-.36-.39-.54-1.81-1.57-3.74-2.32-5.8-2.26h-.07c-1.06.04-2.03.29-2.92.75-.63.31-1.21.72-1.75,1.24,0,0,0,0,0,0-.05.03-.53.31-1.34.71-.2.1-.42.21-.66.32-.02,0-.04.02-.06.02-.05.02-.1.04-.15.07-.02,0-.03.01-.05.02-.02,0-.04.02-.06.03-.04.02-.07.03-.1.04,0,0-.01,0-.01,0,0,0-.01,0-.01,0,0,0-.01,0-.02,0,0,0,0,0,0,0-.02.01-.05.02-.07.03-.01,0-.02.01-.03.01,0,0-.02,0-.02.01h0c-.51.22-1.08.46-1.71.7-.02,0-.03.01-.04.02-2.13.79-4.92,1.57-8.02,1.83-.15.01-.3.02-.46.03-4.06.26-8.62-.43-12.95-3.2-.09-.06-.19-.13-.29-.19-2.54-1.71-3.87-4.5-4-8.37-.11-3.4,2.35-11.53,7.39-24.4,1.06-2.7,1.89-4.78,2.47-6.26l.38-.96c2.23-5.78,3.32-9.33,3.27-10.65-.02-.6-.23-1.11-.63-1.52-.4-.41-.86-.61-1.38-.6-2.11.07-5.91,3.65-11.4,10.73-5.49,7.08-10.37,15.32-14.64,24.71-1.36,2.9-2.65,5.87-3.89,8.91-1.23,3.05-2.39,6.14-3.47,9.27-.42,1.25-.98,2.05-1.66,2.4-.69.35-1.82.55-3.38.6-2.36.08-4.11-.06-5.24-.42-1.13-.36-1.72-.95-1.74-1.77-.02-.47.91-2.98,2.8-7.54,1.47-3.64,2.69-6.67,3.65-9.1,3.55-8.95,6.3-16.38,8.26-22.29,1.96-5.91,2.91-9.65,2.87-11.21-.03-.85-.3-1.55-.81-2.09-.51-.55-1.14-.81-1.88-.78-2.63.09-6.18,3.27-10.64,9.55s-8.73,14.26-12.8,23.94c-1.53,3.65-3.04,7.7-4.54,12.17-1.5,4.47-2.36,6.98-2.59,7.53-.51,1.28-1.07,2.07-1.69,2.38-.62.31-1.88.49-3.77.56-1.95.06-3.46-.1-4.55-.47-1.08-.38-1.63-.94-1.66-1.68-.02-.77.9-3.61,2.77-8.53,1.87-4.92,3.4-9.16,4.61-12.71,1.98-5.69,3.53-11.05,4.64-16.08s1.63-8.7,1.55-11c-.06-1.89-.57-3.34-1.52-4.33-.95-1-2.28-1.47-3.98-1.41-2.85.09-5.25,1.62-7.22,4.58-1.96,2.96-2.87,6.44-2.74,10.44.06,1.7.39,3.24,1,4.64.61,1.39,1.4,2.42,2.38,3.07-.44.97-1.04,1.71-1.8,2.22-.77.51-1.69.77-2.75.81-2.14.07-3.82-.74-5.04-2.42-1.22-1.69-1.88-4.15-1.99-7.39-.21-6.55,1.64-12.24,5.55-17.06,3.92-4.82,8.73-7.32,14.43-7.51,3.92-.13,7.02.74,9.28,2.62,2.27,1.88,3.47,4.54,3.58,7.99.06,1.89-.2,4.37-.78,7.43-.59,3.07-1.56,6.98-2.91,11.75,5.81-11.19,10.74-19.06,14.79-23.58,4.05-4.53,8.11-6.85,12.2-6.99,2.44-.08,4.36.62,5.77,2.11,1.4,1.49,2.15,3.62,2.25,6.39.11,3.43-1.83,9.95-5.82,19.58l-.88,2.04c6.79-11.2,12.54-19.23,17.26-24.09,4.71-4.86,9.1-7.36,13.15-7.49,2.24-.07,4.11.63,5.6,2.1,1.49,1.47,2.27,3.4,2.35,5.79.11,3.4-1.95,10.63-6.2,21.69l-1.02,2.67-.61,1.63c-4.24,11.2-6.33,17.81-6.26,19.84.05,1.64.58,2.88,1.59,3.71,0,0,.01.01.02.02.01,0,.02,0,.03.02.14.1.58.41,1.29.74.61.28,1.4.58,2.36.77.02,0,.04.01.07.01.84.16,1.79.24,2.83.16,1.29-.1,2.72-.45,4.26-1.19.77-.37,1.56-.83,2.37-1.41.01,0,.02-.01.03-.02.08-.06.16-.12.24-.18,0,0,.02-.01.03-.02.18-.13.36-.27.54-.42.65-.66,1.31-1.25,1.97-1.78h0c.65-.52,1.31-.98,1.98-1.38.78-.47,1.57-.85,2.37-1.15.01,0,.03-.01.04-.02.83-.31,1.67-.53,2.52-.66,3.41-.52,6.58.5,9.52,3.04.54.47,1.06,1.03,1.57,1.67.28.36.6.8.96,1.33.04.05.07.11.11.16h0s.2.22.47.56c.13.16.28.35.44.58.87,1.19,2.23,3.28,3.48,6.18,0,.01.01.02.02.04.53,1.23,1.05,2.62,1.49,4.15.95,3.24,1.59,7.12,1.5,11.57Z"/>
    <g>
      <g>
        <path class="cls-3" d="m117.08,76.46s-.04-.02-.06-.03c-.17-.08-.33-.16-.5-.26.14.08.28.15.39.2.06.03.11.06.17.08Z"/>
        <path class="cls-3" d="m144.41,41.48c-.45,4.24-1.34,8.32-2.68,12.25-.59,1.72-1.27,3.43-2.05,5.14-.17.39-.36.77-.54,1.16-.06.12-.12.25-.18.37-.12.25-.24.5-.37.74-.1.2-.2.39-.3.59-.5.96-1.01,1.86-1.52,2.71,0,0,0,.02-.02.03-1.07,1.7-2.09,3.16-3.06,4.42-.73.95-1.43,1.78-2.08,2.51,0-.01-.01-.03-.02-.04-1.25-2.9-2.61-4.99-3.48-6.18-.17-.23-.31-.42-.44-.58.8-1.32,1.24-2.36,1.24-2.36,1.12-1.95,1.97-3.84,2.59-5.36.01-.03.02-.05.03-.08.08-.2.16-.4.23-.59.08-.2.15-.39.22-.58.04-.12.09-.24.13-.36s.08-.22.12-.33c0-.02.01-.03.02-.05.03-.08.05-.15.07-.22.02-.04.03-.09.05-.13.02-.04.03-.09.04-.13.03-.08.05-.16.08-.23.03-.09.06-.18.08-.26,0-.03.02-.05.02-.07.03-.1.06-.18.07-.24,0-.01,0-.02,0-.03,0-.03.02-.05.03-.08,2.34-6.87,3.62-12.85,3.85-17.94.28-6.02-.93-10.02-3.62-12-1.69-1.24-3.57-1.42-5.66-.57-2.09.86-4.15,2.68-6.19,5.46-2.85,3.88-5.02,8.34-6.53,13.38-1.33,4.46-2.04,9.09-2.12,13.87,0,0,0,.01,0,.02,0,0,0,.01,0,.02s0,.02,0,.03c0,.05,0,.1,0,.14,0,.07,0,.14,0,.21,0,.05,0,.11,0,.18,0,.03,0,.06,0,.1,0,.25,0,.57.02.93.01.34.04.72.07,1.13-.01,0-.03.01-.04.02-.8.3-1.59.68-2.37,1.15-.67.4-1.33.86-1.98,1.38h0c-.66.53-1.32,1.13-1.97,1.78-.18.15-.36.29-.54.42-.35-1.01-.65-2.08-.88-3.23-.13-.62-.24-1.27-.33-1.93h.03c-.83-5.4-.47-11.33,1.07-17.79,1.62-6.79,4.15-12.54,7.61-17.25,3.64-4.96,7.6-8.06,11.87-9.32,4.27-1.25,8.28-.5,12.04,2.26,2.99,2.2,5.12,5.48,6.4,9.84,1.27,4.36,1.61,9.59,1.02,15.67Z"/>
        <path class="cls-3" d="m136.74,64.46c-.2.33-.4.66-.6.98-.83,1.3-1.65,2.46-2.44,3.48,0-.01-.01-.03-.02-.04.97-1.26,2-2.72,3.06-4.42Z"/>
        <path class="cls-3" d="m132.65,53.61c-.02.06-.04.14-.07.24,0,.02-.02.05-.02.07-.03.08-.05.16-.08.26-.03.07-.05.15-.08.23-.02.04-.03.08-.04.13-.01.04-.03.09-.05.13-.02.07-.05.14-.07.22,0,.02-.01.03-.02.05-.04.1-.08.21-.12.33-.04.11-.09.24-.13.36-.07.18-.14.38-.22.58-.07.19-.15.39-.23.59.4-1.08.78-2.14,1.14-3.18Z"/>
        <path class="cls-3" d="m139.13,60.03c-.05.12-.11.23-.17.35,0,0,0,.01,0,.02h0c.06-.12.12-.24.18-.37Z"/>
      </g>
      <path class="cls-3" d="m117.08,76.46s-.04-.02-.06-.03c-.03-.02-.07-.03-.1-.05.06.03.11.06.17.08Z"/>
      <path class="cls-3" d="m120.35,70.04c-.18,0-.37-.03-.56-.06.18.02.37.04.56.06Z"/>
    </g>
    <path class="cls-3" d="m124.93,76.5c-.11.04-.21.09-.32.13,0,0,0,0-.01,0-.46.18-.92.32-1.39.43-1.98.47-3.88.34-5.68-.4,0,0-.04-.02-.13-.05-.05-.02-.1-.05-.18-.08-.02-.01-.05-.02-.08-.04-.01,0-.03-.01-.04-.02,0,0,0,0,0,0-.01,0-.02,0-.03-.01-.05-.02-.11-.05-.17-.08-.12-.06-.25-.13-.39-.2-.04-.02-.07-.04-.11-.06-.03-.01-.06-.03-.09-.05,0,0-.01,0-.02,0-1.31-.72-3.49-2.11-5.64-4.41h-.01s-.03-.04-.06-.07c-.05-.05-.1-.11-.15-.16-.05-.05-.1-.11-.16-.18-.06-.07-.14-.16-.22-.25-.02-.03-.05-.06-.08-.1-.15-.18-.33-.39-.51-.63-.2-.25-.41-.54-.64-.85.81-.4,1.29-.68,1.34-.71,0,0,0,0,0,0,.55-.51,1.13-.93,1.76-1.24.9-.45,1.87-.7,2.92-.74h.07c.68,1,1.54,1.89,2.64,2.54h0c.6.33,1.27.57,2.02.7.07.01.15.03.22.04.19.03.37.05.56.06.21.02.42.02.65.02.14-.02.29-.04.44-.07.04.06.08.11.11.17.02.03.04.06.06.09.68,1.02,1.28,2.03,1.8,3.02.59,1.11,1.09,2.19,1.52,3.24Z"/>
    <path class="cls-3" d="m114.92,66.7h-.07c-1.06.04-2.03.29-2.92.75-.63.31-1.21.73-1.76,1.24,0,0,0,0,0,0-.05.03-.53.31-1.34.71-1.06-1.47-2.35-3.59-3.26-6.15-.36-1.02-.66-2.1-.86-3.24.24,1.14.53,2.22.88,3.23.18-.13.36-.27.54-.42.65-.66,1.31-1.25,1.97-1.78h0c.65-.52,1.31-.98,1.98-1.38.78-.47,1.57-.85,2.37-1.15.14,2.02.64,5.53,2.45,8.21Z"/>
  </g>
  <path class="cls-3" d="m40.26,95.87c-1.08,0-2.08-.68-2.44-1.76-.45-1.35.28-2.81,1.63-3.26.59-.2.83-.28,38.07-.22,18.2.03,36.55.09,36.74.09,1.42,0,2.57,1.16,2.57,2.58,0,1.42-1.16,2.57-2.58,2.57h0c-28.24-.09-70.9-.17-73.64-.02-.11.01-.22.02-.33.02Zm.81-.13s0,0,0,0c0,0,0,0,0,0Zm0,0s0,0,0,0c0,0,0,0,0,0Z"/>
</svg>