<?xml version="1.0" encoding="UTF-8"?>
<svg id="Layer_1" data-name="Layer 1" xmlns="http://www.w3.org/2000/svg" viewBox="0 0 57.82 35.88">
  <defs>
    <style>
      .cls-1 {
        fill: #01b597;
      }

      .cls-2 {
        fill: #39a9e0;
      }

      .cls-3 {
        fill: #3d3d3c;
      }

      .cls-4 {
        fill: #010101;
      }
    </style>
  </defs>
  <path class="cls-1" d="m51.3,0H6.52C2.93,0,0,2.93,0,6.52v18.56c0,3.6,2.93,6.52,6.52,6.52h40.57c-.06-.41-.12-.68-.12-.68-.09-.44-.21-.87-.36-1.3H6.52c-2.5,0-4.54-2.04-4.54-4.54V6.52C1.98,4.02,4.02,1.98,6.52,1.98h44.78c2.5,0,4.54,2.03,4.54,4.54v18.56c0,2.5-2.03,4.54-4.54,4.54h-.69c.12.65.19,1.31.22,1.98h.47c3.6,0,6.52-2.93,6.52-6.52V6.52c0-3.6-2.93-6.52-6.52-6.52Z"/>
  <path class="cls-4" d="m41.82,26.71c.07.09.13.17.18.24-.06-.08-.13-.16-.19-.24,0,0,0,0,0,0Z"/>
  <path class="cls-4" d="m46.3,26.76c.11-.02.22-.04.33-.07-.04.01-.09.03-.13.04-.06.02-.13.03-.19.04-.06,0-.11.02-.16.02-.08,0-.16,0-.24-.02.14.01.27,0,.4-.01Z"/>
  <path class="cls-4" d="m47.53,29.25c-.07.02-.11.03-.13.03.04-.01.08-.03.12-.04,0,0,0,0,0,0Z"/>
  <path class="cls-2" d="m46.62,26.68s-.09.03-.13.04c-.06.02-.13.03-.19.04,0,0,0,0,0,0,.11-.02.22-.04.33-.07Z"/>
  <path class="cls-4" d="m42.17,27.15s.04.04.05.06c-.01-.02-.03-.04-.05-.06Z"/>
  <g>
    <path class="cls-1" d="m50.37,32.6c0,.2-.02.41-.04.61l-2.62.62c0-.3,0-.6-.02-.9,0,0,0-.07,0-.18,0-.11,0-.27-.03-.47,0,0,0,0,0-.01-.08-.79-.22-1.43-.22-1.46-.1-.47-.25-1.01-.45-1.58-.05-.14-.11-.29-.16-.43,0,0,0,0,0,0-.02-.05-.04-.11-.06-.16,0,0,0,0,0,0-.16-.39-.35-.8-.57-1.21-.2-.37-.42-.75-.68-1.13,0,0-.01-.02-.02-.03-.01-.02-.03-.04-.04-.06h0c-.04-.06-.07-.12-.11-.17,0,0,0,0,0,0-.05-.07-.09-.14-.14-.2-.68-.59-1.4-.87-2.17-.85h-.03c-.4.02-.76.11-1.09.28-.23.12-.45.27-.66.46,0,0,0,0,0,0-.02.01-.2.12-.5.27-.08.04-.16.08-.25.12,0,0-.01,0-.02,0-.02,0-.04.02-.05.03,0,0-.01,0-.02,0,0,0-.02,0-.02,0-.01,0-.03.01-.04.02,0,0,0,0,0,0,0,0,0,0,0,0,0,0,0,0,0,0,0,0,0,0,0,0,0,0-.02,0-.03.01,0,0,0,0,0,0,0,0,0,0,0,0h0c-.19.08-.4.17-.64.26,0,0-.01,0-.02,0-.8.3-1.84.59-3,.68-.06,0-.11,0-.17.01-1.52.1-3.22-.16-4.85-1.2-.03-.02-.07-.05-.11-.07-.95-.64-1.45-1.69-1.5-3.13-.04-1.27.88-4.32,2.77-9.13.4-1.01.71-1.79.92-2.34l.14-.36c.83-2.16,1.24-3.49,1.22-3.98,0-.23-.09-.41-.23-.57-.15-.16-.32-.23-.52-.22-.79.03-2.21,1.36-4.26,4.01-2.06,2.65-3.88,5.73-5.48,9.25-.51,1.08-.99,2.2-1.45,3.33-.46,1.14-.89,2.3-1.3,3.47-.16.47-.37.77-.62.9-.26.13-.68.21-1.26.23-.88.03-1.54-.02-1.96-.16-.42-.14-.64-.36-.65-.66,0-.17.34-1.12,1.05-2.82.55-1.36,1.01-2.5,1.37-3.4,1.33-3.35,2.36-6.13,3.09-8.34.73-2.21,1.09-3.61,1.07-4.2-.01-.32-.11-.58-.3-.78-.19-.2-.43-.3-.7-.29-.98.03-2.31,1.22-3.98,3.58s-3.27,5.34-4.79,8.96c-.57,1.36-1.14,2.88-1.7,4.55-.56,1.67-.88,2.61-.97,2.82-.19.48-.4.78-.63.89-.23.12-.7.19-1.41.21-.73.02-1.3-.04-1.7-.18-.4-.14-.61-.35-.62-.63,0-.29.34-1.35,1.04-3.19.7-1.84,1.27-3.43,1.72-4.76.74-2.13,1.32-4.14,1.73-6.02s.61-3.26.58-4.12c-.02-.71-.21-1.25-.57-1.62-.35-.37-.85-.55-1.49-.53-1.07.03-1.97.61-2.7,1.71-.73,1.11-1.08,2.41-1.03,3.91.02.64.14,1.21.37,1.73.23.52.52.91.89,1.15-.16.36-.39.64-.67.83-.29.19-.63.29-1.03.3-.8.03-1.43-.28-1.89-.91-.46-.63-.7-1.55-.75-2.76-.08-2.45.61-4.58,2.08-6.38,1.47-1.8,3.27-2.74,5.4-2.81,1.47-.05,2.63.28,3.47.98.85.7,1.3,1.7,1.34,2.99.02.71-.07,1.64-.29,2.78-.22,1.15-.58,2.61-1.09,4.4,2.17-4.19,4.02-7.13,5.53-8.82,1.52-1.69,3.04-2.57,4.57-2.61.91-.03,1.63.23,2.16.79.53.56.81,1.35.84,2.39.04,1.28-.68,3.72-2.18,7.33l-.33.76c2.54-4.19,4.69-7.2,6.46-9.02,1.76-1.82,3.4-2.75,4.92-2.8.84-.03,1.54.24,2.1.79.56.55.85,1.27.88,2.17.04,1.27-.73,3.98-2.32,8.12l-.38,1-.23.61c-1.59,4.19-2.37,6.67-2.34,7.43.02.61.22,1.08.6,1.39,0,0,0,0,0,0,0,0,0,0,0,0,.05.04.22.15.48.28.23.11.53.22.88.29,0,0,.02,0,.03,0,.31.06.67.09,1.06.06.48-.04,1.02-.17,1.59-.44.29-.14.58-.31.89-.53,0,0,0,0,.01,0,.03-.02.06-.04.09-.07,0,0,0,0,0,0,.07-.05.14-.1.2-.16.24-.25.49-.47.74-.67h0c.24-.2.49-.37.74-.52.29-.18.59-.32.89-.43,0,0,.01,0,.02,0,.31-.12.62-.2.94-.25,1.28-.19,2.46.19,3.56,1.14.2.18.4.38.59.63.1.13.22.3.36.5.01.02.03.04.04.06h0s.07.08.18.21c.05.06.1.13.16.22.33.45.84,1.23,1.3,2.31,0,0,0,0,0,.01.2.46.39.98.56,1.55.35,1.21.6,2.66.56,4.33Z"/>
    <g>
      <g>
        <path class="cls-3" d="m43.81,28.61s-.01,0-.02,0c-.06-.03-.12-.06-.19-.1.05.03.1.05.15.08.02.01.04.02.06.03Z"/>
        <path class="cls-3" d="m54.04,15.52c-.17,1.59-.5,3.11-1,4.58-.22.64-.48,1.28-.77,1.92-.07.15-.13.29-.2.43-.02.05-.04.09-.07.14-.05.09-.09.19-.14.28-.04.07-.07.15-.11.22-.19.36-.38.7-.57,1.01,0,0,0,0,0,0-.4.63-.78,1.18-1.15,1.65-.27.35-.53.67-.78.94,0,0,0,0,0-.01-.47-1.09-.98-1.87-1.3-2.31-.06-.08-.12-.16-.16-.22.3-.49.47-.88.47-.88.42-.73.74-1.44.97-2,0,0,0-.02.01-.03.03-.08.06-.15.09-.22.03-.08.06-.15.08-.22.02-.05.03-.09.05-.13s.03-.08.04-.12c0,0,0-.01,0-.02.01-.03.02-.05.03-.08,0-.02.01-.03.02-.05,0-.02.01-.03.02-.05,0-.03.02-.06.03-.09.01-.04.02-.07.03-.1,0,0,0-.02,0-.03.01-.04.02-.07.03-.09,0,0,0,0,0-.01,0,0,0-.02,0-.03.87-2.57,1.35-4.81,1.44-6.71.1-2.25-.35-3.75-1.36-4.49-.63-.46-1.34-.53-2.12-.21-.78.32-1.55,1-2.32,2.04-1.07,1.45-1.88,3.12-2.44,5.01-.5,1.67-.76,3.4-.79,5.19,0,0,0,0,0,0,0,0,0,0,0,0s0,0,0,.01c0,.02,0,.04,0,.05,0,.03,0,.05,0,.08,0,.02,0,.04,0,.07,0,.01,0,.02,0,.04,0,.09,0,.21,0,.35,0,.13.01.27.03.42,0,0-.01,0-.02,0-.3.11-.6.26-.89.43-.25.15-.5.32-.74.52h0c-.25.2-.49.42-.74.67-.07.05-.14.11-.2.16-.13-.38-.24-.78-.33-1.21-.05-.23-.09-.47-.12-.72h0c-.31-2.02-.18-4.24.4-6.66.61-2.54,1.55-4.69,2.85-6.46,1.36-1.85,2.84-3.02,4.44-3.49,1.6-.47,3.1-.19,4.51.84,1.12.82,1.92,2.05,2.39,3.68.48,1.63.6,3.59.38,5.86Z"/>
        <path class="cls-3" d="m51.17,24.12c-.07.13-.15.25-.23.36-.31.49-.62.92-.91,1.3,0,0,0,0,0-.01.36-.47.75-1.02,1.15-1.65Z"/>
        <path class="cls-3" d="m49.64,20.06s-.02.05-.03.09c0,0,0,.02,0,.03,0,.03-.02.06-.03.1,0,.03-.02.06-.03.09,0,.01-.01.03-.02.05,0,.02-.01.03-.02.05,0,.03-.02.05-.03.08,0,0,0,.01,0,.02-.01.04-.03.08-.04.12-.02.04-.03.09-.05.13-.03.07-.05.14-.08.22-.03.07-.06.14-.09.22.15-.4.29-.8.43-1.19Z"/>
        <path class="cls-3" d="m52.07,22.46s-.04.09-.06.13c0,0,0,0,0,0h0s.05-.09.07-.14Z"/>
      </g>
      <path class="cls-3" d="m43.81,28.61s-.01,0-.02,0c-.01,0-.03-.01-.04-.02.02.01.04.02.06.03Z"/>
      <path class="cls-3" d="m45.04,26.21c-.07,0-.14,0-.21-.02.07,0,.14.02.21.02Z"/>
    </g>
    <path class="cls-3" d="m46.76,28.63s-.08.03-.12.05c0,0,0,0,0,0-.17.07-.35.12-.52.16-.74.18-1.45.13-2.13-.15,0,0-.02,0-.05-.02-.02,0-.04-.02-.07-.03,0,0-.02,0-.03-.01,0,0,0,0-.02,0,0,0,0,0,0,0,0,0,0,0-.01,0-.02,0-.04-.02-.06-.03-.04-.02-.09-.05-.15-.08-.01,0-.03-.02-.04-.02-.01,0-.02-.01-.04-.02,0,0,0,0,0,0-.49-.27-1.31-.79-2.11-1.65h0s-.01-.02-.02-.03c-.02-.02-.04-.04-.06-.06-.02-.02-.04-.04-.06-.07-.02-.03-.05-.06-.08-.09,0-.01-.02-.02-.03-.04-.06-.07-.12-.15-.19-.24-.07-.09-.15-.2-.24-.32.3-.15.48-.26.5-.27,0,0,0,0,0,0,.2-.19.42-.35.66-.46.34-.17.7-.26,1.09-.28h.03c.25.38.58.71.99.95h0c.22.12.48.21.76.26.03,0,.05,0,.08.01.07.01.14.02.21.02.08,0,.16,0,.24,0,.05,0,.11-.02.16-.03.02.02.03.04.04.06,0,.01.02.02.02.03.25.38.48.76.68,1.13.22.41.41.82.57,1.21Z"/>
    <path class="cls-3" d="m43.01,24.96h-.03c-.4.02-.76.11-1.09.28-.23.12-.45.27-.66.46,0,0,0,0,0,0-.02.01-.2.12-.5.27-.4-.55-.88-1.34-1.22-2.3-.13-.38-.25-.79-.32-1.21.09.43.2.83.33,1.21.07-.05.14-.1.2-.16.24-.25.49-.47.74-.67h0c.24-.2.49-.37.74-.52.29-.18.59-.32.89-.43.05.75.24,2.07.92,3.07Z"/>
  </g>
  <path class="cls-3" d="m15.07,35.88c-.4,0-.78-.26-.91-.66-.17-.51.1-1.05.61-1.22.22-.07.31-.1,14.25-.08,6.81.01,13.68.03,13.75.03.53,0,.96.43.96.97,0,.53-.43.96-.96.96h0c-10.57-.03-26.54-.06-27.56,0-.04,0-.08,0-.12,0Zm.3-.05s0,0,0,0c0,0,0,0,0,0Zm0,0s0,0,0,0c0,0,0,0,0,0Z"/>
</svg>